<?xml version="1.0"?>
<svg xmlns="http://www.w3.org/2000/svg" id="Layer_1" data-name="Layer 1" viewBox="0 0 512 512" width="512" height="512"><title>Pass</title><path d="M415.08,49.57V462.43a30,30,0,0,1-30,30H126.92a30,30,0,0,1-30-30V49.57a30,30,0,0,1,30-30H176.7C182.06,58,215.62,87.68,256,88.17s73.46-29.68,79.3-68.6h49.78A30,30,0,0,1,415.08,49.57ZM380.96,234.69a16.6,16.6,0,0,0-12.31-16.03l-5.38-1.43a15.181,15.181,0,0,1-10.17-8.99,15.189,15.189,0,0,0-14.08-9.5H166.07l-21.69-34.62H131.04V230.7l26.95,11.57a111.3,111.3,0,0,0,43.85,9.01h48.88l-30.58,55.6h34.47l48.37-55.6h61.39a16.593,16.593,0,0,0,16.59-16.59Z" style="fill:#00acea"/><path d="M368.65,218.66a16.591,16.591,0,0,1-4.28,32.62H302.98l-48.37,55.6H220.14l30.58-55.6H201.84a111.3,111.3,0,0,1-43.85-9.01L131.04,230.7V198.74H339.02a15.189,15.189,0,0,1,14.08,9.5,15.181,15.181,0,0,0,10.17,8.99Z" style="fill:#00efd1"/><polygon points="144.38 164.12 166.07 198.74 131.04 198.74 131.04 164.12 144.38 164.12" style="fill:#00ceb4"/><path d="M385.08,12H335.3a7.814,7.814,0,0,0-7.911,6.6,73.2,73.2,0,0,1-24.068,44.145A70.16,70.16,0,0,1,256.1,80.224c-35.9-.435-66.628-26.775-71.474-61.517A7.837,7.837,0,0,0,176.7,12H126.92A37.61,37.61,0,0,0,89,49.57V462.43A37.61,37.61,0,0,0,126.92,500H385.08A37.61,37.61,0,0,0,423,462.43V49.57A37.61,37.61,0,0,0,385.08,12Zm0,472H126.92A21.593,21.593,0,0,1,105,462.43V398.763l64.505-.443a8.162,8.162,0,0,0-.094-16.32h-.056L105,382.762V49.57A21.593,21.593,0,0,1,126.92,28h43.11a90.1,90.1,0,0,0,27.934,46.346,89.843,89.843,0,0,0,57.941,21.931,86.222,86.222,0,0,0,57.979-21.354A89.8,89.8,0,0,0,341.918,28H385.08A21.593,21.593,0,0,1,407,49.57v333.2L341.675,382h-.056a8.139,8.139,0,0,0-8,8.105,8.036,8.036,0,0,0,7.9,8.135l65.475.53v63.66A21.593,21.593,0,0,1,385.08,484Z" style="fill:#083863"/><path d="M293.46,383H217.57a8,8,0,1,0,0,16h75.89a8,8,0,1,0,0-16Z" style="fill:#083863"/><path d="M381.757,251.937a24.272,24.272,0,0,0,7.2-17.317,24.586,24.586,0,0,0-18.255-23.726l-5.393-1.416a7.025,7.025,0,0,1-2.9-1.553,6.65,6.65,0,0,1-1.9-2.556A22.968,22.968,0,0,0,339.02,191H170.5l-19.34-31.058A8.185,8.185,0,0,0,144.38,156H131.04a8.138,8.138,0,0,0-8.04,8.12V230.7a8.018,8.018,0,0,0,4.864,7.351l26.965,11.432A118.556,118.556,0,0,0,201.84,259h35.349L213.13,302.885a8.246,8.246,0,0,0,.123,8.057A8.128,8.128,0,0,0,220.14,315h34.47a8.2,8.2,0,0,0,6.036-2.949L306.624,259H364.37A24.3,24.3,0,0,0,381.757,251.937ZM139,172h.951l11.666,19H139Zm163.98,71a8.205,8.205,0,0,0-6.036,2.949L250.967,299h-17.3L257.729,255.2a8.32,8.32,0,0,0-.123-8.1,8.165,8.165,0,0,0-6.886-4.1H201.84a102.7,102.7,0,0,1-40.714-8.221L139,225.429V207H339.02a7.046,7.046,0,0,1,6.667,4.377,23.145,23.145,0,0,0,15.528,13.617l5.37,1.411a8.6,8.6,0,0,1,6.375,8.293,8.2,8.2,0,0,1-2.518,5.929A8.4,8.4,0,0,1,364.37,243Z" style="fill:#083863"/></svg>
