<?xml version="1.0"?>
<svg xmlns="http://www.w3.org/2000/svg" id="Layer_1" data-name="Layer 1" viewBox="0 0 512 512" width="512" height="512"><title>Document</title><path d="M100.65,51.98v-.02c0-19.89,17.05-36.01,38.08-36.01H353.72l1.26,1.28V94.75c0,9.95,8.53,18.01,19.05,18.01h74.71l.59.6V424.01c0,19.86-16.99,35.95-37.98,36.01H138.73c-21.03,0-38.08-16.12-38.08-36.01ZM418.88,177.14a17.635,17.635,0,0,0-13.09-17.04l-5.72-1.53a16.179,16.179,0,0,1-10.82-9.56,16.122,16.122,0,0,0-14.97-10.1H190.37L167.31,102.1H153.12v70.8l28.66,12.3a118.317,118.317,0,0,0,46.63,9.58h51.97L247.86,253.9h36.66l51.44-59.12h65.28a17.651,17.651,0,0,0,17.64-17.64Z" style="fill:#f4b844"/><path d="M354.98,17.23l93.76,95.53H374.03c-10.52,0-19.05-8.06-19.05-18.01Z" style="fill:#00acea"/><path d="M405.79,160.1a17.639,17.639,0,0,1-4.55,34.68H335.96L284.52,253.9H247.86l32.52-59.12H228.41a118.317,118.317,0,0,1-46.63-9.58l-28.66-12.3V138.91H374.28a16.122,16.122,0,0,1,14.97,10.1,16.179,16.179,0,0,0,10.82,9.56Z" style="fill:#00efd1"/><path d="M411.35,460.02v.02c0,19.89-17.05,36.01-38.08,36.01H100.76c-21.04,0-38.09-16.12-38.09-36.01V87.99c0-19.86,16.99-35.95,37.98-36.01V424.01c0,19.89,17.05,36.01,38.08,36.01H411.35Z" style="fill:#00acea"/><polygon points="167.31 102.1 190.37 138.91 153.12 138.91 153.12 102.1 167.31 102.1" style="fill:#00ceb4"/><path d="M454.715,107.425c-.153-.169-.312-.332-.479-.488L361.492,12.444a8.028,8.028,0,0,0-1.754-1.785l-.317-.3A7.972,7.972,0,0,0,353.72,8H138.73C115.967,8,97.184,23.824,93.481,44.587,71.6,48,55,66.171,55,87.99V460.04C55,484.307,75.346,504,100.76,504H373.27c22.769,0,41.556-15.832,45.251-36.588C440.4,463.994,457,445.828,457,424.01V113.36a7.851,7.851,0,0,0-2.129-5.608ZM363,36.8,429.679,105H374.03c-6.093,0-11.03-4.73-11.03-10.25ZM373.27,488H100.76C84.168,488,71,475.485,71,460.04V87.99c0-12.815,9-23.662,22-26.969V424.01C93,448.277,113.321,468,138.73,468H402.1C398.4,480,386.879,488,373.27,488Zm38.08-36H138.73C122.144,452,109,439.455,109,424.01V53.247c0-.414-.065-.835-.065-1.267a7.651,7.651,0,0,0-.169-1.053C109.367,35.971,122.525,24,138.73,24H347V94.75c0,14.342,12.114,26.25,27.03,26.25H441V424.01C441,439.407,427.871,452,411.35,452Z" style="fill:#083863"/><path d="M150.79,292H282.33a8,8,0,0,0,0-16H150.79a8,8,0,1,0,0,16Z" style="fill:#083863"/><path d="M379.71,315H150.79a8,8,0,1,0,0,16H379.71a8,8,0,1,0,0-16Z" style="fill:#083863"/><path d="M379.71,354H150.79a8,8,0,1,0,0,16H379.71a8,8,0,1,0,0-16Z" style="fill:#083863"/><path d="M379.71,393H150.79a8,8,0,1,0,0,16H379.71a8,8,0,1,0,0-16Z" style="fill:#083863"/><path d="M407.857,152.372l-5.736-1.535a8.122,8.122,0,0,1-3.3-1.779,7.991,7.991,0,0,1-2.148-2.991A23.984,23.984,0,0,0,374.28,131H194.8L174.089,97.848A8.089,8.089,0,0,0,167.31,94H153.12a8.189,8.189,0,0,0-8.12,8.1v70.8a8.053,8.053,0,0,0,4.905,7.351L178.6,192.663A125.894,125.894,0,0,0,228.41,203h38.439l-26,47.155A7.993,7.993,0,0,0,247.86,262h36.66a7.943,7.943,0,0,0,6.035-2.688L339.6,203H401.24a25.763,25.763,0,0,0,6.617-50.628ZM161,110h1.881l13.037,21H161Zm247.053,74.063A9.682,9.682,0,0,1,401.24,187H335.96a7.941,7.941,0,0,0-6.035,2.689L280.876,246H261.391l26-47.315a7.84,7.84,0,0,0-.124-7.841A7.921,7.921,0,0,0,280.38,187H228.41a110.112,110.112,0,0,1-43.535-9.041L161,167.627V147H374.28a8.059,8.059,0,0,1,7.553,5.053A24.165,24.165,0,0,0,398,166.309l5.726,1.526a9.72,9.72,0,0,1,4.325,16.228Z" style="fill:#083863"/></svg>
